<svg width="24" height="24" viewBox="0 0 24 24" fill="none" xmlns="http://www.w3.org/2000/svg">
<path fill-rule="evenodd" clip-rule="evenodd" d="M13.571 5.4187L12.7917 4.39092C12.3916 3.86318 11.5982 3.86318 11.198 4.39092L10.4187 5.4187C9.96021 6.0234 9.21112 6.33368 8.45932 6.23031L7.18151 6.05462C6.52539 5.96441 5.96441 6.52539 6.05462 7.18151L6.23031 8.45932C6.33368 9.21113 6.02339 9.96021 5.4187 10.4187L4.39092 11.198C3.86318 11.5982 3.86318 12.3916 4.39092 12.7917L5.4187 13.571C6.0234 14.0295 6.33368 14.7786 6.23031 15.5304L6.05462 16.8082C5.96441 17.4644 6.52539 18.0253 7.18151 17.9351L8.45932 17.7594C9.21113 17.6561 9.96021 17.9664 10.4187 18.571L11.198 19.5988C11.5982 20.1266 12.3915 20.1266 12.7917 19.5988L13.571 18.571C14.0295 17.9663 14.7786 17.6561 15.5304 17.7594L16.8082 17.9351C17.4644 18.0253 18.0253 17.4644 17.9351 16.8082L17.7594 15.5304C17.6561 14.7786 17.9664 14.0295 18.571 13.571L19.5988 12.7917C20.1266 12.3915 20.1266 11.5982 19.5988 11.198L18.571 10.4187C17.9663 9.96021 17.6561 9.21112 17.7594 8.45932L17.9351 7.18151C18.0253 6.5254 17.4644 5.96441 16.8082 6.05462L15.5304 6.23031C14.7786 6.33368 14.0295 6.02339 13.571 5.4187ZM14.3854 3.18252C13.1849 1.59932 10.8048 1.59932 9.60437 3.18252L8.82505 4.2103C8.80322 4.2391 8.76755 4.25387 8.73175 4.24895L7.45393 4.07326C5.48559 3.80262 3.80262 5.48559 4.07326 7.45393L4.24895 8.73175C4.25387 8.76755 4.2391 8.80322 4.2103 8.82505L3.18252 9.60437C1.59932 10.8048 1.59932 13.1849 3.18252 14.3854L4.2103 15.1647C4.2391 15.1865 4.25387 15.2222 4.24895 15.258L4.07326 16.5358C3.80262 18.5042 5.48559 20.1871 7.45393 19.9165L8.73175 19.7408C8.76755 19.7359 8.80322 19.7507 8.82505 19.7794L9.60437 20.8072C10.8048 22.3904 13.1849 22.3904 14.3854 20.8072L15.1647 19.7794C15.1865 19.7507 15.2222 19.7359 15.258 19.7408L16.5358 19.9165C18.5042 20.1871 20.1871 18.5042 19.9165 16.5358L19.7408 15.258C19.7359 15.2222 19.7507 15.1865 19.7794 15.1647L20.8072 14.3854C22.3904 13.1849 22.3904 10.8048 20.8072 9.60438L19.7794 8.82505C19.7507 8.80322 19.7359 8.76755 19.7408 8.73175L19.9165 7.45393C20.1871 5.48559 18.5042 3.80262 16.5358 4.07326L15.258 4.24895C15.2222 4.25387 15.1865 4.2391 15.1647 4.2103L14.3854 3.18252Z" fill="black"/>
<path fill-rule="evenodd" clip-rule="evenodd" d="M15.7071 9.29289C16.0976 9.68342 16.0976 10.3166 15.7071 10.7071L11.7071 14.7071C11.3166 15.0976 10.6834 15.0976 10.2929 14.7071L8.29289 12.7071C7.90237 12.3166 7.90237 11.6834 8.29289 11.2929C8.68342 10.9024 9.31658 10.9024 9.70711 11.2929L11 12.5858L14.2929 9.29289C14.6834 8.90237 15.3166 8.90237 15.7071 9.29289Z" fill="black"/>
</svg>
