<svg width="24" height="24" viewBox="0 0 24 24" fill="none" xmlns="http://www.w3.org/2000/svg">
<path fill-rule="evenodd" clip-rule="evenodd" d="M4.3553 4.35547C4.29777 4.38043 4.24069 4.40727 4.18404 4.43614C3.43139 4.81963 2.81947 5.43156 2.43598 6.1842C2.18868 6.66954 2.09012 7.18624 2.04419 7.74834C1.99998 8.28953 1.99999 8.95389 2 9.75885V9.80017V14.2002V14.2415C1.99999 15.0464 1.99998 15.7108 2.04419 16.252C2.09012 16.8141 2.18868 17.3308 2.43598 17.8161C2.81947 18.5688 3.43139 19.1807 4.18404 19.5642C4.66937 19.8115 5.18608 19.91 5.74818 19.956C6.28937 20.0002 6.95373 20.0002 7.7587 20.0002H7.8H16.2H16.2413C17.0462 20.0002 17.7106 20.0002 18.2518 19.956C18.7483 19.9154 19.2094 19.8338 19.6447 19.6449L17.9711 17.9712C17.5378 17.9995 16.9837 18.0002 16.2 18.0002H7.8C6.94342 18.0002 6.36113 17.9994 5.91104 17.9626C5.47262 17.9268 5.24842 17.8619 5.09202 17.7822C4.7157 17.5904 4.40974 17.2845 4.21799 16.9081C4.1383 16.7517 4.07337 16.5275 4.03755 16.0891C4.00078 15.639 4 15.0567 4 14.2002V9.80017C4 8.94359 4.00078 8.36129 4.03755 7.9112C4.07337 7.47279 4.1383 7.24859 4.21799 7.09219C4.40974 6.71586 4.7157 6.4099 5.09202 6.21815C5.24842 6.13846 5.47262 6.07354 5.91104 6.03772C5.94935 6.03459 5.98861 6.03172 6.02892 6.02909L4.3553 4.35547Z" fill="black"/>
<path fill-rule="evenodd" clip-rule="evenodd" d="M10.2528 6.00332C10.2217 6.00078 10.1848 6.00001 10 6.00001C9.44772 6.00001 9 5.5523 9 5.00001C9 4.44773 9.44772 4.00001 10 4.00001C10.0097 4.00001 10.0193 4.00001 10.0288 4.00001C10.1691 3.99996 10.2925 3.99992 10.4153 4.00993C11.041 4.06093 11.635 4.30696 12.1135 4.71337C12.2074 4.79311 12.2947 4.88038 12.3939 4.97968C12.4006 4.9864 12.4074 4.99318 12.4142 5.00001L13.4142 6.00001L16.2413 6.00001C17.0463 6 17.7106 5.99999 18.2518 6.04421C18.8139 6.09013 19.3306 6.1887 19.816 6.43599C20.5686 6.81948 21.1805 7.4314 21.564 8.18405C21.8113 8.66939 21.9099 9.18609 21.9558 9.74819C22 10.2894 22 10.9538 22 11.7587V16C22 16.5523 21.5523 17 21 17C20.4477 17 20 16.5523 20 16V11.8C20 10.9434 19.9992 10.3611 19.9624 9.91105C19.9266 9.47263 19.8617 9.24843 19.782 9.09203C19.5903 8.71571 19.2843 8.40975 18.908 8.218C18.7516 8.13831 18.5274 8.07338 18.089 8.03756C17.6389 8.00079 17.0566 8.00001 16.2 8.00001H13C12.7348 8.00001 12.4804 7.89466 12.2929 7.70712L11 6.41423C10.8693 6.28353 10.8427 6.25801 10.8189 6.2378C10.6594 6.10233 10.4614 6.02032 10.2528 6.00332Z" fill="black"/>
<path fill-rule="evenodd" clip-rule="evenodd" d="M2.29289 2.29289C2.68342 1.90237 3.31658 1.90237 3.70711 2.29289L21.7071 20.2929C22.0976 20.6834 22.0976 21.3166 21.7071 21.7071C21.3166 22.0976 20.6834 22.0976 20.2929 21.7071L2.29289 3.70711C1.90237 3.31658 1.90237 2.68342 2.29289 2.29289Z" fill="black"/>
</svg>
