<svg width="24" height="24" viewBox="0 0 24 24" fill="none" xmlns="http://www.w3.org/2000/svg">
<path fill-rule="evenodd" clip-rule="evenodd" d="M13 5C11.3431 5 10 6.34315 10 8C10 9.33789 10.2119 9.97342 10.4431 10.6669L10.4487 10.6838C10.7153 11.4837 11 12.3487 11 14C11 14.5523 10.5523 15 10 15C9.44772 15 9 14.5523 9 14C9 12.6621 8.78813 12.0266 8.55695 11.3331L8.55132 11.3162C8.28468 10.5163 8 9.65125 8 8C8 5.23858 10.2386 3 13 3C15.7614 3 18 5.23858 18 8C18 10.2688 17.1387 11.9591 16.3779 13.3539C16.3357 13.4312 16.2942 13.5072 16.2532 13.582C15.5235 14.9164 15 15.8737 15 17C15 18.1046 15.8954 19 17 19C18.1046 19 19 18.1046 19 17C19 16.4477 19.4477 16 20 16C20.5523 16 21 16.4477 21 17C21 19.2091 19.2091 21 17 21C14.7909 21 13 19.2091 13 17C13 15.338 13.772 13.9385 14.4448 12.7188C14.5049 12.6099 14.5642 12.5023 14.6221 12.3961C15.3613 11.0409 16 9.73119 16 8C16 6.34315 14.6569 5 13 5Z" fill="black"/>
<path fill-rule="evenodd" clip-rule="evenodd" d="M7 12C5.89543 12 5 12.8954 5 14C5 15.1046 5.89543 16 7 16C8.10457 16 9 15.1046 9 14C9 12.8954 8.10457 12 7 12ZM3 14C3 11.7909 4.79086 10 7 10C9.20914 10 11 11.7909 11 14C11 16.2091 9.20914 18 7 18C4.79086 18 3 16.2091 3 14Z" fill="black"/>
</svg>
