<svg width="24" height="24" viewBox="0 0 24 24" fill="none" xmlns="http://www.w3.org/2000/svg">
<path fill-rule="evenodd" clip-rule="evenodd" d="M14.2413 2H9.7587C8.95374 1.99999 8.28937 1.99998 7.74818 2.04419C7.18608 2.09012 6.66937 2.18868 6.18404 2.43598C5.43139 2.81947 4.81947 3.43139 4.43598 4.18404C4.18868 4.66937 4.09012 5.18608 4.04419 5.74818C3.99998 6.28937 3.99999 6.95372 4 7.75869V16.2413C3.99999 17.0463 3.99998 17.7106 4.04419 18.2518C4.09012 18.8139 4.18868 19.3306 4.43598 19.816C4.81947 20.5686 5.43139 21.1805 6.18404 21.564C6.66937 21.8113 7.18608 21.9099 7.74818 21.9558C8.28937 22 8.95372 22 9.75868 22H14.2413C15.0463 22 15.7106 22 16.2518 21.9558C16.8139 21.9099 17.3306 21.8113 17.816 21.564C18.5686 21.1805 19.1805 20.5686 19.564 19.816C19.8113 19.3306 19.9099 18.8139 19.9558 18.2518C20 17.7106 20 17.0463 20 16.2413V7.75868C20 6.95373 20 6.28936 19.9558 5.74818C19.9099 5.18608 19.8113 4.66937 19.564 4.18404C19.1805 3.43139 18.5686 2.81947 17.816 2.43598C17.3306 2.18868 16.8139 2.09012 16.2518 2.04419C15.7106 1.99998 15.0463 1.99999 14.2413 2ZM7.09202 4.21799C7.24842 4.1383 7.47262 4.07337 7.91104 4.03755C8.20463 4.01357 8.55447 4.00489 9 4.00176V5C9 5.55229 9.44772 6 10 6H14C14.5523 6 15 5.55229 15 5V4.00176C15.4455 4.00489 15.7954 4.01357 16.089 4.03755C16.5274 4.07337 16.7516 4.1383 16.908 4.21799C17.2843 4.40973 17.5903 4.7157 17.782 5.09202C17.8617 5.24842 17.9266 5.47262 17.9625 5.91104C17.9992 6.36113 18 6.94342 18 7.8V16.2C18 17.0566 17.9992 17.6389 17.9625 18.089C17.9266 18.5274 17.8617 18.7516 17.782 18.908C17.5903 19.2843 17.2843 19.5903 16.908 19.782C16.7516 19.8617 16.5274 19.9266 16.089 19.9624C15.6389 19.9992 15.0566 20 14.2 20H9.8C8.94342 20 8.36113 19.9992 7.91104 19.9624C7.47262 19.9266 7.24842 19.8617 7.09202 19.782C6.7157 19.5903 6.40973 19.2843 6.21799 18.908C6.1383 18.7516 6.07337 18.5274 6.03755 18.089C6.00078 17.6389 6 17.0566 6 16.2V7.8C6 6.94342 6.00078 6.36113 6.03755 5.91104C6.07337 5.47262 6.1383 5.24842 6.21799 5.09202C6.40973 4.7157 6.7157 4.40973 7.09202 4.21799Z" fill="black"/>
</svg>
