<svg width="24" height="24" viewBox="0 0 24 24" fill="none" xmlns="http://www.w3.org/2000/svg">
<path fill-rule="evenodd" clip-rule="evenodd" d="M19 17H5C5 18.1046 5.89543 19 7 19H17C18.1046 19 19 18.1046 19 17ZM5 15C3.89543 15 3 15.8954 3 17C3 19.2091 4.79086 21 7 21H17C19.2091 21 21 19.2091 21 17C21 15.8954 20.1046 15 19 15H5Z" fill="black"/>
<path fill-rule="evenodd" clip-rule="evenodd" d="M14.631 7.4427C14.8662 7.01463 15 6.52294 15 6C15 4.34315 13.6569 3 12 3C10.3431 3 9 4.34315 9 6C9 6.52294 9.1338 7.01462 9.36903 7.44269C6.24322 8.53078 4 11.5034 4 15V16.0909C4 16.593 4.40701 17 4.90909 17H19.0909C19.593 17 20 16.593 20 16.0909V15C20 11.5034 17.7568 8.53078 14.631 7.4427ZM13 6C13 6.55228 12.5523 7 12 7C11.4477 7 11 6.55228 11 6C11 5.44772 11.4477 5 12 5C12.5523 5 13 5.44772 13 6ZM12 9C8.68629 9 6 11.6863 6 15H18C18 11.6863 15.3137 9 12 9Z" fill="black"/>
</svg>
