<svg width="24" height="24" viewBox="0 0 24 24" fill="none" xmlns="http://www.w3.org/2000/svg">
<path fill-rule="evenodd" clip-rule="evenodd" d="M4 21C4.55229 21 5 20.5523 5 20L5 4C5 3.44772 4.55228 3 4 3C3.44772 3 3 3.44772 3 4L3 20C3 20.5523 3.44772 21 4 21Z" fill="black"/>
<path d="M20 19C19.4477 19 19 19.4477 19 20C19 20.5523 19.4477 21 20 21C20.5523 21 21 20.5523 21 20C21 19.4477 20.5523 19 20 19Z" fill="black"/>
<path d="M20 15C19.4477 15 19 15.4477 19 16C19 16.5523 19.4477 17 20 17C20.5523 17 21 16.5523 21 16C21 15.4477 20.5523 15 20 15Z" fill="black"/>
<path d="M11 16C11 15.4477 11.4477 15 12 15C12.5523 15 13 15.4477 13 16C13 16.5523 12.5523 17 12 17C11.4477 17 11 16.5523 11 16Z" fill="black"/>
<path d="M8 11C7.44772 11 7 11.4477 7 12C7 12.5523 7.44772 13 8 13C8.55229 13 9 12.5523 9 12C9 11.4477 8.55229 11 8 11Z" fill="black"/>
<path d="M7 4C7 3.44772 7.44771 3 8 3C8.55229 3 9 3.44772 9 4C9 4.55228 8.55229 5 8 5C7.44771 5 7 4.55228 7 4Z" fill="black"/>
<path d="M20 11C19.4477 11 19 11.4477 19 12C19 12.5523 19.4477 13 20 13C20.5523 13 21 12.5523 21 12C21 11.4477 20.5523 11 20 11Z" fill="black"/>
<path d="M15 12C15 11.4477 15.4477 11 16 11C16.5523 11 17 11.4477 17 12C17 12.5523 16.5523 13 16 13C15.4477 13 15 12.5523 15 12Z" fill="black"/>
<path d="M16 19C15.4477 19 15 19.4477 15 20C15 20.5523 15.4477 21 16 21C16.5523 21 17 20.5523 17 20C17 19.4477 16.5523 19 16 19Z" fill="black"/>
<path d="M11 20C11 19.4477 11.4477 19 12 19C12.5523 19 13 19.4477 13 20C13 20.5523 12.5523 21 12 21C11.4477 21 11 20.5523 11 20Z" fill="black"/>
<path d="M8 19C7.44772 19 7 19.4477 7 20C7 20.5523 7.44772 21 8 21C8.55229 21 9 20.5523 9 20C9 19.4477 8.55229 19 8 19Z" fill="black"/>
<path d="M12 11C11.4477 11 11 11.4477 11 12C11 12.5523 11.4477 13 12 13C12.5523 13 13 12.5523 13 12C13 11.4477 12.5523 11 12 11Z" fill="black"/>
<path d="M11 8C11 7.44772 11.4477 7 12 7C12.5523 7 13 7.44772 13 8C13 8.55229 12.5523 9 12 9C11.4477 9 11 8.55229 11 8Z" fill="black"/>
<path d="M20 7C19.4477 7 19 7.44771 19 8C19 8.55229 19.4477 9 20 9C20.5523 9 21 8.55229 21 8C21 7.44771 20.5523 7 20 7Z" fill="black"/>
<path d="M11 4C11 3.44772 11.4477 3 12 3C12.5523 3 13 3.44772 13 4C13 4.55228 12.5523 5 12 5C11.4477 5 11 4.55228 11 4Z" fill="black"/>
<path d="M20 3C19.4477 3 19 3.44772 19 4C19 4.55228 19.4477 5 20 5C20.5523 5 21 4.55228 21 4C21 3.44772 20.5523 3 20 3Z" fill="black"/>
<path d="M15 4C15 3.44772 15.4477 3 16 3C16.5523 3 17 3.44772 17 4C17 4.55228 16.5523 5 16 5C15.4477 5 15 4.55228 15 4Z" fill="black"/>
</svg>
