<svg width="24" height="24" viewBox="0 0 24 24" fill="none" xmlns="http://www.w3.org/2000/svg">
<path d="M15 9C15 8.44772 15.4477 8 16 8H22V10H16C15.4477 10 15 9.55228 15 9Z" fill="black"/>
<path fill-rule="evenodd" clip-rule="evenodd" d="M4.14348 4.14355C3.95764 4.18889 3.79211 4.24855 3.63803 4.32706C3.07354 4.61468 2.6146 5.07362 2.32698 5.63811C2.12607 6.03241 2.04861 6.5016 2.01874 7.19452C2.00704 7.4661 2.00118 7.6019 2.05389 7.71354C2.09917 7.80945 2.17943 7.89324 2.2733 7.94261C2.38257 8.00008 2.52414 8.00008 2.80727 8.00008H8L4.14348 4.14355ZM10 10.0001H2.8C2.51997 10.0001 2.37996 10.0001 2.273 10.0546C2.17892 10.1025 2.10243 10.179 2.0545 10.2731C2 10.38 2 10.5201 2 10.8001V15.2001C2 16.8802 2 17.7203 2.32698 18.3621C2.6146 18.9265 3.07354 19.3855 3.63803 19.6731C4.27976 20.0001 5.11984 20.0001 6.8 20.0001H17.2C18.4767 20.0001 19.2684 20.0001 19.8565 19.8566L10 10.0001ZM6 15.0001C6 14.4478 6.44772 14.0001 7 14.0001H11C11.5523 14.0001 12 14.4478 12 15.0001C12 15.5524 11.5523 16.0001 11 16.0001H7C6.44772 16.0001 6 15.5524 6 15.0001Z" fill="black"/>
<path fill-rule="evenodd" clip-rule="evenodd" d="M19.0322 6.02393C18.7488 6.00078 18.3766 6 17.8 6H11C10.4477 6 10 5.55229 10 5C10 4.44772 10.4477 4 11 4L17.8385 4C18.3657 3.99998 18.8205 3.99997 19.195 4.03057C19.5904 4.06287 19.9836 4.13419 20.362 4.32698C20.9265 4.6146 21.3854 5.07354 21.673 5.63803C21.8658 6.01641 21.9371 6.40963 21.9694 6.80497C22 7.17955 22 7.63432 22 8.16148V15C22 15.5523 21.5523 16 21 16C20.4477 16 20 15.5523 20 15V8.2C20 7.62345 19.9992 7.25117 19.9761 6.96784C19.9539 6.69617 19.9162 6.59546 19.891 6.54601C19.7951 6.35785 19.6422 6.20487 19.454 6.109C19.4045 6.0838 19.3038 6.04612 19.0322 6.02393Z" fill="black"/>
<path fill-rule="evenodd" clip-rule="evenodd" d="M2.29289 2.29289C2.68342 1.90237 3.31658 1.90237 3.70711 2.29289L21.7071 20.2929C22.0976 20.6834 22.0976 21.3166 21.7071 21.7071C21.3166 22.0976 20.6834 22.0976 20.2929 21.7071L2.29289 3.70711C1.90237 3.31658 1.90237 2.68342 2.29289 2.29289Z" fill="black"/>
</svg>
