<svg width="24" height="24" viewBox="0 0 24 24" fill="none" xmlns="http://www.w3.org/2000/svg">
<path d="M8 13C7.44772 13 7 13.4477 7 14C7 14.5523 7.44772 15 8 15C8.55229 15 9 14.5523 9 14C9 13.4477 8.55229 13 8 13Z" fill="black"/>
<path d="M16 11C16.5523 11 17 10.5523 17 10C17 9.44771 16.5523 9 16 9C15.4477 9 15 9.44771 15 10C15 10.5523 15.4477 11 16 11Z" fill="black"/>
<path fill-rule="evenodd" clip-rule="evenodd" d="M3 9.4C3 7.15979 3 6.03969 3.43597 5.18404C3.81947 4.43139 4.43139 3.81947 5.18404 3.43597C6.03969 3 7.15979 3 9.4 3H14.6C16.8402 3 17.9603 3 18.816 3.43597C19.5686 3.81947 20.1805 4.43139 20.564 5.18404C21 6.03969 21 7.15979 21 9.4V14.6C21 16.8402 21 17.9603 20.564 18.816C20.1805 19.5686 19.5686 20.1805 18.816 20.564C17.9603 21 16.8402 21 14.6 21H9.4C7.15979 21 6.03969 21 5.18404 20.564C4.43139 20.1805 3.81947 19.5686 3.43597 18.816C3 17.9603 3 16.8402 3 14.6V9.4ZM8 11C6.34315 11 5 12.3431 5 14C5 16.8 7.73333 19 12 19C14.5527 19 16.5088 18.2436 17.7143 17.0133C18.1008 16.6188 18.0943 15.9856 17.6999 15.5991C17.3054 15.2126 16.6722 15.2191 16.2857 15.6136C15.5586 16.3557 14.1813 17 12 17C10.9635 17 10.1171 16.8612 9.43515 16.6351C10.3675 16.1262 11 15.137 11 14C11 12.3431 9.65685 11 8 11ZM16 13C14.3431 13 13 11.6569 13 10C13 8.86301 13.6325 7.87375 14.5649 7.3649C13.8829 7.13875 13.0365 7 12 7C9.8187 7 8.44142 7.64432 7.71429 8.38645C7.32777 8.78094 6.69463 8.7874 6.30015 8.40088C5.90566 8.01436 5.8992 7.38123 6.28571 6.98674C7.49123 5.75636 9.44729 5 12 5C16.2667 5 19 7.2 19 10C19 11.6569 17.6569 13 16 13Z" fill="black"/>
</svg>
