<svg width="24" height="24" viewBox="0 0 24 24" fill="none" xmlns="http://www.w3.org/2000/svg">
<path fill-rule="evenodd" clip-rule="evenodd" d="M16.9142 14.0858C16.1332 13.3047 14.8668 13.3047 14.0858 14.0858L12 16.1716L9.91421 14.0858C9.13316 13.3047 7.86683 13.3047 7.08579 14.0858C6.30474 14.8668 6.30474 16.1332 7.08579 16.9142L10.5858 20.4142C11.3668 21.1953 12.6332 21.1953 13.4142 20.4142L16.9142 16.9142C17.6953 16.1332 17.6953 14.8668 16.9142 14.0858Z" fill="black"/>
<path fill-rule="evenodd" clip-rule="evenodd" d="M16.9142 9.91421C16.1332 10.6953 14.8668 10.6953 14.0858 9.91421L12 7.82843L9.91421 9.91421C9.13316 10.6953 7.86683 10.6953 7.08579 9.91421C6.30474 9.13316 6.30474 7.86684 7.08579 7.08579L10.5858 3.58579C11.3668 2.80474 12.6332 2.80474 13.4142 3.58579L16.9142 7.08579C17.6953 7.86684 17.6953 9.13316 16.9142 9.91421Z" fill="black"/>
</svg>
