<svg width="24" height="24" viewBox="0 0 24 24" fill="none" xmlns="http://www.w3.org/2000/svg">
<path d="M8.00993 5.19946C8.00035 5.46988 7.99557 5.60509 8.04861 5.71589C8.09423 5.81118 8.17427 5.89412 8.26789 5.94307C8.37675 6.00001 8.51811 6.00001 8.80084 6.00001H12.864C13.3688 5.99995 13.8603 5.99989 14.2766 6.0339C14.7338 6.07125 15.2733 6.15939 15.8161 6.43598C16.5688 6.81948 17.1807 7.4314 17.5642 8.18405C17.8408 8.7269 17.9289 9.26636 17.9663 9.72355C18.0003 10.1399 18.0002 10.6314 18.0002 11.1362V15.1993C18.0002 15.4821 18.0002 15.6234 18.0571 15.7323C18.1061 15.8259 18.189 15.9059 18.2843 15.9516C18.3951 16.0046 18.5303 15.9998 18.8007 15.9902C19.3014 15.9725 19.6322 15.9226 19.9081 15.782C20.2845 15.5903 20.5904 15.2843 20.7822 14.908C21.0002 14.4802 21.0002 13.9201 21.0002 12.8V6.2C21.0002 5.0799 21.0002 4.51984 20.7822 4.09202C20.5904 3.71569 20.2845 3.40973 19.9081 3.21799C19.4803 3 18.9203 3 17.8002 3H11.2002C10.0801 3 9.52001 3 9.09219 3.21799C8.71586 3.40973 8.4099 3.71569 8.21815 4.09202C8.07757 4.36792 8.02765 4.69882 8.00993 5.19946Z" fill="black"/>
<path d="M3 11.2C3 10.0799 3 9.51984 3.21799 9.09202C3.40973 8.71569 3.71569 8.40973 4.09202 8.21799C4.51984 8 5.0799 8 6.2 8H12.8C13.9201 8 14.4802 8 14.908 8.21799C15.2843 8.40973 15.5903 8.71569 15.782 9.09202C16 9.51984 16 10.0799 16 11.2V17.8C16 18.9201 16 19.4802 15.782 19.908C15.5903 20.2843 15.2843 20.5903 14.908 20.782C14.4802 21 13.9201 21 12.8 21H6.2C5.07989 21 4.51984 21 4.09202 20.782C3.71569 20.5903 3.40973 20.2843 3.21799 19.908C3 19.4802 3 18.9201 3 17.8V11.2Z" fill="black"/>
</svg>
