<svg width="24" height="24" viewBox="0 0 24 24" fill="none" xmlns="http://www.w3.org/2000/svg">
<path fill-rule="evenodd" clip-rule="evenodd" d="M10.8719 4.08202C10.5235 3.99836 10.1647 3.9987 9.75783 3.99907L6.16146 3.99912C5.63431 3.99911 5.17955 3.99909 4.80498 4.02969C4.40963 4.062 4.01641 4.13331 3.63803 4.32611C3.07355 4.61373 2.6146 5.07267 2.32698 5.63715C2.13419 6.01553 2.06287 6.40875 2.03057 6.8041C1.99997 7.17865 1.99998 7.63337 2 8.16048V8.1605V15.8377V15.8377C1.99998 16.3648 1.99997 16.8196 2.03057 17.1942C2.06287 17.5895 2.13419 17.9827 2.32698 18.3611C2.6146 18.9256 3.07355 19.3845 3.63803 19.6721C4.01641 19.8649 4.40963 19.9363 4.80498 19.9686C5.1795 19.9992 5.6342 19.9991 6.16127 19.9991H6.16129H6.16131H6.16134H6.16136H17.8385H17.8386H17.8386H17.8386H17.8386C18.3657 19.9991 18.8205 19.9992 19.195 19.9686C19.5904 19.9363 19.9836 19.8649 20.362 19.6721C20.9265 19.3845 21.3854 18.9256 21.673 18.3611C21.8658 17.9827 21.9371 17.5895 21.9694 17.1942C22 16.8196 22 16.3648 22 15.8377V10.1606C22 9.63342 22 9.17866 21.9694 8.8041C21.9371 8.40875 21.8658 8.01553 21.673 7.63716C21.3854 7.07267 20.9265 6.61373 20.362 6.32611C19.9836 6.13331 19.5904 6.062 19.195 6.02969C18.8205 5.99909 18.3657 5.99911 17.8386 5.99912L13.4142 5.99913L12.5855 5.17033L12.5855 5.17032C12.298 4.88234 12.0446 4.62844 11.7391 4.4412C11.4707 4.27672 11.178 4.15551 10.8719 4.08202ZM11.9999 12.9998C12.5522 12.9998 12.9999 12.5521 12.9999 11.9998C12.9999 11.4475 12.5522 10.9998 11.9999 10.9998C11.4476 10.9998 10.9999 11.4475 10.9999 11.9998C10.9999 12.5521 11.4476 12.9998 11.9999 12.9998ZM14.4002 13.7997C14.7768 13.2983 14.9999 12.6751 14.9999 11.9998C14.9999 10.3429 13.6568 8.99977 11.9999 8.99977C10.343 8.99977 8.9999 10.3429 8.9999 11.9998C8.9999 12.6751 9.22304 13.2983 9.59962 13.7997C8.62822 14.5295 7.9999 15.6912 7.9999 16.9998C7.9999 17.5521 8.44761 17.9998 8.9999 17.9998C9.55218 17.9998 9.9999 17.5521 9.9999 16.9998C9.9999 15.8952 10.8953 14.9998 11.9999 14.9998C13.1045 14.9998 13.9999 15.8952 13.9999 16.9998C13.9999 17.5521 14.4476 17.9998 14.9999 17.9998C15.5522 17.9998 15.9999 17.5521 15.9999 16.9998C15.9999 15.6912 15.3716 14.5295 14.4002 13.7997Z" fill="black"/>
</svg>
