<svg width="24" height="24" viewBox="0 0 24 24" fill="none" xmlns="http://www.w3.org/2000/svg">
<path fill-rule="evenodd" clip-rule="evenodd" d="M3 11C3 6.02944 7.02944 2 12 2C16.9706 2 21 6.02944 21 11C21 14.0264 19.1902 16.5918 17.1049 18.399L13.6635 21.3816C12.7088 22.209 11.2912 22.209 10.3365 21.3816L6.89505 18.399C4.80977 16.5918 3 14.0264 3 11ZM9.29289 12.7071L11.2929 14.7071C11.6834 15.0976 12.3166 15.0976 12.7071 14.7071L14.7071 12.7071C15.0976 12.3166 15.0976 11.6834 14.7071 11.2929C14.3166 10.9024 13.6834 10.9024 13.2929 11.2929L13 11.5858V8C13 7.44772 12.5523 7 12 7C11.4477 7 11 7.44772 11 8V11.5858L10.7071 11.2929C10.3166 10.9024 9.68342 10.9024 9.29289 11.2929C8.90237 11.6834 8.90237 12.3166 9.29289 12.7071Z" fill="black"/>
</svg>
