<svg width="24" height="24" viewBox="0 0 24 24" fill="none" xmlns="http://www.w3.org/2000/svg">
<path fill-rule="evenodd" clip-rule="evenodd" d="M13 16C13 16.5523 12.5523 17 12 17L4 17C3.44772 17 3 16.5523 3 16C3 15.4477 3.44771 15 4 15L12 15C12.5523 15 13 15.4477 13 16Z" fill="black"/>
<path d="M3.29289 15.2929C2.90237 15.6834 2.90237 16.3166 3.29289 16.7071L6.29289 19.7071C6.57889 19.9931 7.00901 20.0787 7.38268 19.9239C7.75636 19.7691 8 19.4045 8 19L8 13C8 12.5956 7.75636 12.2309 7.38268 12.0761C7.00901 11.9214 6.57889 12.0069 6.29289 12.2929L3.29289 15.2929Z" fill="black"/>
<path fill-rule="evenodd" clip-rule="evenodd" d="M21 8C21 8.55229 20.5523 9 20 9L12 9C11.4477 9 11 8.55228 11 8C11 7.44772 11.4477 7 12 7L20 7C20.5523 7 21 7.44772 21 8Z" fill="black"/>
<path d="M17.7071 11.7071L20.7071 8.70714C21.0976 8.31661 21.0976 7.68345 20.7071 7.29292L17.7071 4.29292C17.4211 4.00692 16.991 3.92137 16.6173 4.07615C16.2436 4.23093 16 4.59557 16 5.00003V11C16 11.4045 16.2436 11.7691 16.6173 11.9239C16.991 12.0787 17.4211 11.9931 17.7071 11.7071Z" fill="black"/>
</svg>
