<svg width="24" height="24" viewBox="0 0 24 24" fill="none" xmlns="http://www.w3.org/2000/svg">
<path fill-rule="evenodd" clip-rule="evenodd" d="M3.43597 5.18404C3 6.03969 3 7.15979 3 9.4V14.6C3 16.8402 3 17.9603 3.43597 18.816C3.81947 19.5686 4.43139 20.1805 5.18404 20.564C6.03969 21 7.15979 21 9.4 21H14.6C16.8402 21 17.9603 21 18.816 20.564C19.5686 20.1805 20.1805 19.5686 20.564 18.816C21 17.9603 21 16.8402 21 14.6V9.4C21 7.15979 21 6.03969 20.564 5.18404C20.1805 4.43139 19.5686 3.81947 18.816 3.43597C17.9603 3 16.8402 3 14.6 3H9.4C7.15979 3 6.03969 3 5.18404 3.43597C4.43139 3.81947 3.81947 4.43139 3.43597 5.18404ZM12 15C11.4477 15 11 15.4477 11 16C11 16.5523 11.4477 17 12 17H16C16.5523 17 17 16.5523 17 16C17 15.4477 16.5523 15 16 15H12ZM9 12C9 11.4477 9.44772 11 10 11H14C14.5523 11 15 11.4477 15 12C15 12.5523 14.5523 13 14 13H10C9.44772 13 9 12.5523 9 12ZM8 7C7.44772 7 7 7.44772 7 8C7 8.55228 7.44772 9 8 9H12C12.5523 9 13 8.55228 13 8C13 7.44772 12.5523 7 12 7H8Z" fill="black"/>
</svg>
