<svg width="32" height="32" viewBox="0 0 32 32" fill="none" xmlns="http://www.w3.org/2000/svg">
<g clip-path="url(#clip0_4007_978)">
<path d="M28.4475 31.9737C28.4475 31.9737 33.4315 16.2617 18.3115 16.2617C-1.09654 16.2617 3.48746 31.9737 3.48746 31.9737H28.4475Z" fill="#FE9767"/>
<path d="M19.8069 11.2346C22.1829 8.57863 20.9269 3.65063 17.0149 3.25063C13.5349 2.89863 11.7909 6.17863 12.2149 9.39463C12.7349 13.3706 17.4389 13.8906 19.8149 11.2346" stroke="black" stroke-width="1.28" stroke-linecap="round" stroke-linejoin="round"/>
<path d="M5.04084 10.2373C3.06484 11.8053 3.35284 15.3893 6.03284 16.1333C8.41684 16.7973 10.0248 14.7173 10.1128 12.4213C10.2248 9.58928 7.00884 8.66928 5.04084 10.2293" stroke="black" stroke-width="1.28" stroke-linecap="round" stroke-linejoin="round"/>
<path d="M23.199 11.8379C22.415 14.2299 24.631 17.0699 27.271 16.2139C29.623 15.4539 29.823 12.8379 28.639 10.8699C27.175 8.43788 23.983 9.43788 23.199 11.8379Z" stroke="black" stroke-width="1.28" stroke-linecap="round" stroke-linejoin="round"/>
<path d="M14.0945 14.293C7.49449 17.917 8.04649 31.093 8.04649 31.093" stroke="black" stroke-width="1.28" stroke-linecap="round" stroke-linejoin="round"/>
<path d="M5.27359 17.6758C0.257593 22.4998 1.99359 31.0998 1.99359 31.0998" stroke="black" stroke-width="1.28" stroke-linecap="round" stroke-linejoin="round"/>
<path d="M19.4727 13.8867C26.0727 17.5107 24.0327 31.0947 24.0327 31.0947" stroke="black" stroke-width="1.28" stroke-linecap="round" stroke-linejoin="round"/>
<path d="M28.2305 17.6758C31.6945 21.0838 29.9585 31.3078 29.9585 31.3078" stroke="black" stroke-width="1.28" stroke-linecap="round" stroke-linejoin="round"/>
</g>
<defs>
<clipPath id="clip0_4007_978">
<rect width="32" height="32" fill="white"/>
</clipPath>
</defs>
</svg>
